<svg xmlns="http://www.w3.org/2000/svg" viewBox="0 0 100 100">
  <!-- Purple gradient background -->
  <defs>
    <linearGradient id="grad" x1="0%" y1="0%" x2="100%" y2="100%">
      <stop offset="0%" style="stop-color:#9333ea;stop-opacity:1" />
      <stop offset="100%" style="stop-color:#2563eb;stop-opacity:1" />
    </linearGradient>
  </defs>
  
  <!-- Background circle -->
  <circle cx="50" cy="50" r="48" fill="url(#grad)"/>
  
  <!-- AI/Data visualization inspired design -->
  <g fill="white" opacity="0.9">
    <!-- Top dot -->
    <circle cx="50" cy="25" r="5"/>
    <!-- Middle row -->
    <circle cx="35" cy="45" r="5"/>
    <circle cx="50" cy="45" r="5"/>
    <circle cx="65" cy="45" r="5"/>
    <!-- Bottom row -->
    <circle cx="35" cy="65" r="5"/>
    <circle cx="50" cy="65" r="5"/>
    <circle cx="65" cy="65" r="5"/>
    <circle cx="50" cy="80" r="5"/>
  </g>
  
  <!-- Connecting lines (neural network style) -->
  <g stroke="white" stroke-width="1.5" opacity="0.4" fill="none">
    <line x1="50" y1="25" x2="35" y2="45"/>
    <line x1="50" y1="25" x2="50" y2="45"/>
    <line x1="50" y1="25" x2="65" y2="45"/>
    <line x1="35" y1="45" x2="35" y2="65"/>
    <line x1="50" y1="45" x2="50" y2="65"/>
    <line x1="65" y1="45" x2="65" y2="65"/>
    <line x1="35" y1="65" x2="50" y2="80"/>
    <line x1="50" y1="65" x2="50" y2="80"/>
    <line x1="65" y1="65" x2="50" y2="80"/>
  </g>
</svg>
